#!OML:ASF H:\Punching\Project 1\Capture day 1\Session 1\female.ASF
:FULLY-SPECIFIED
:DEGREES
1881
root 9.74253 15.8852 20.9949 -344.564 302.229 -2.77824
lowerback -5.17274 -0.683337 -0.691435
upperback -5.46973 -0.966211 1.33876
thorax -2.70135 -0.477011 1.74133
lowerneck -14.1761 -6.15739 -1.14842
upperneck 36.2024 -14.1122 9.56072
head 16.241 -5.21193 1.65458
rclavicle 9.09584e-014 -6.36111e-015
rhumerus -33.3217 -1.98686 -77.5162
rradius 29.02
rwrist 5.70344
rhand -13.8228 -2.27122
rfingers 7.12502
rthumb 12.2999 -31.8895
lclavicle 9.09584e-014 -6.36111e-015
lhumerus -44.7871 9.53109 61.189
lradius 33.6856
lwrist -20.2469
lhand -7.30799 13.4248
lfingers 7.12502
lthumb 18.5746 42.558
rfemur -26.6077 16.68 13.222
rtibia 34.9513
rfoot -18.2353 5.56303
rtoes -7.17862
lfemur -17.1582 -10.9823 -15.456
ltibia 20.3628
lfoot -15.0784 8.30396
ltoes -0.310035
1882
root 9.77626 15.8895 21.0323 -344.19 301.158 -3.14961
lowerback -5.08291 -0.753431 -0.650659
upperback -5.42403 -1.06094 1.38978
thorax -2.70033 -0.525358 1.76923
lowerneck -14.0546 -6.38511 -1.45861
upperneck 36.078 -14.4357 9.70757
head 16.2215 -5.39058 1.70726
rclavicle 1.44274e-015 6.75868e-015
rhumerus -33.4039 -1.77241 -77.4666
rradius 29.179
rwrist 5.44408
rhand -13.7763 -2.35885
rfingers 7.12502
rthumb 12.3448 -31.9744
lclavicle 1.44274e-015 6.75868e-015
lhumerus -44.4521 9.44338 60.6902
lradius 33.6554
lwrist -20.2285
lhand -7.68094 13.5755
lfingers 7.12502
lthumb 18.2158 42.7426
rfemur -26.7284 16.0912 13.6555
rtibia 35.1229
rfoot -18.0053 4.13715
rtoes -6.65931
lfemur -17.0367 -10.5685 -15.6339
ltibia 20.4173
lfoot -15.2151 8.88797
ltoes -0.10116
1883
root 9.8082 15.8929 21.0683 -343.808 300.061 -3.51219
lowerback -5.01129 -0.813058 -0.65018
upperback -5.38628 -1.1408 1.43806
thorax -2.69732 -0.565049 1.81726
lowerneck -13.9208 -6.61184 -1.74522
upperneck 35.9557 -14.7553 9.82838
head 16.1963 -5.56819 1.7458
rclavicle 7.79814e-014 2.3059e-014
rhumerus -33.5015 -1.55057 -77.4058
rradius 29.3364
rwrist 5.22085
rhand -13.6823 -2.4151
rfingers 7.12502
rthumb 12.4354 -32.0252
lclavicle 7.79814e-014 2.3059e-014
lhumerus -44.1344 9.31292 60.2215
lradius 33.6413
lwrist -20.1608
lhand -8.04769 13.7418
lfingers 7.12502
lthumb 17.863 42.9415
rfemur -26.8576 15.4944 14.0859
rtibia 35.2911
rfoot -17.8335 2.68697
rtoes -6.22374
lfemur -16.9227 -10.1379 -15.8264
ltibia 20.4682
lfoot -15.3697 9.48971
ltoes 0.0670178
1884
root 9.83842 15.8957 21.1028 -343.442 298.958 -3.83788
lowerback -4.9662 -0.863864 -0.692325
upperback -5.34677 -1.20793 1.47303
thorax -2.67755 -0.597321 1.8754
lowerneck -13.8164 -6.83549 -2.00127
upperneck 35.8593 -15.0782 9.92885
head 16.1888 -5.743 1.76876
rclavicle 2.05684e-014 -5.56597e-015
rhumerus -33.6094 -1.33886 -77.3361
rradius 29.4989
rwrist 5.02758
rhand -13.5185 -2.42192
rfingers 7.12502
rthumb 12.5933 -32.0223
lclavicle 2.05684e-014 -5.56597e-015
lhumerus -43.7998 9.13379 59.7835
lradius 33.6343
lwrist -20.055
lhand -8.38529 13.9124
lfingers 7.12502
lthumb 17.5381 43.1413
rfemur -26.9917 14.871 14.5028
rtibia 35.4566
rfoot -17.7135 1.21511
rtoes -5.925
lfemur -16.8225 -9.7086 -16.0435
ltibia 20.5161
lfoot -15.5371 10.1037
ltoes 0.206444
1885
root 9.86686 15.8976 21.1356 -343.085 297.847 -4.14136
lowerback -4.9334 -0.909643 -0.779971
upperback -5.31202 -1.26724 1.50723
thorax -2.65518 -0.62428 1.95834
lowerneck -13.7256 -7.05156 -2.24802
upperneck 35.7815 -15.3933 10.0189
head 16.1929 -5.91297 1.78665
rclavicle -4.7878e-014 -6.95746e-015
rhumerus -33.7233 -1.17364 -77.2287
rradius 29.6436
rwrist 4.91766
rhand -13.2851 -2.3567
rfingers 7.12502
rthumb 12.8184 -31.9431
lclavicle -4.7878e-014 -6.95746e-015
lhumerus -43.4692 8.93184 59.3704
lradius 33.6314
lwrist -19.9384
lhand -8.68078 14.0691
lfingers 7.12502
lthumb 17.2537 43.3232
rfemur -27.1289 14.2418 14.912
rtibia 35.6168
rfoot -17.6346 -0.283811
rtoes -5.73627
lfemur -16.7344 -9.28064 -16.2765
ltibia 20.5661
lfoot -15.7214 10.7343
ltoes 0.328941
1886
root 9.89375 15.8989 21.1669 -342.723 296.736 -4.43938
lowerback -4.9052 -0.958051 -0.906678
upperback -5.28565 -1.32912 1.54789
thorax -2.63774 -0.651199 2.06985
lowerneck -13.6441 -7.25216 -2.48168
upperneck 35.721 -15.6873 10.0946
head 16.2044 -6.073 1.79988
rclavicle 3.56442e-014 9.69075e-015
rhumerus -33.8334 -1.02553 -77.1033
rradius 29.7673
rwrist 4.86646
rhand -13.0349 -2.26874
rfingers 7.12502
rthumb 13.0596 -31.8399
lclavicle 3.56442e-014 9.69075e-015
lhumerus -43.1581 8.72564 58.9699
lradius 33.6329
lwrist -19.8239
lhand -8.92475 14.2044
lfingers 7.12502
lthumb 17.0189 43.4789
rfemur -27.2657 13.6112 15.3221
rtibia 35.7665
rfoot -17.5865 -1.80949
rtoes -5.60162
lfemur -16.6639 -8.86035 -16.5134
ltibia 20.6255
lfoot -15.927 11.3716
ltoes 0.477984
1887
root 9.91951 15.8995 21.1966 -342.363 295.623 -4.72977
lowerback -4.87013 -1.00576 -1.06894
upperback -5.26848 -1.38929 1.59214
thorax -2.63269 -0.675991 2.20542
lowerneck -13.5629 -7.44268 -2.70563
upperneck 35.6639 -15.9653 10.1596
head 16.2148 -6.22605 1.80983
rclavicle 3.74298e-014 1.7667e-014
rhumerus -33.943 -0.917644 -76.9539
rradius 29.8727
rwrist 4.8596
rhand -12.8034 -2.18325
rfingers 7.12502
rthumb 13.2827 -31.74
lclavicle 3.74298e-014 1.7667e-014
lhumerus -42.8606 8.50225 58.5919
lradius 33.6361
lwrist -19.7022
lhand -9.12135 14.3135
lfingers 7.12502
lthumb 16.8296 43.6041
rfemur -27.3995 12.9853 15.7273
rtibia 35.901
rfoot -17.5692 -3.33583
rtoes -5.34715
lfemur -16.6121 -8.44269 -16.7567
ltibia 20.702
lfoot -16.1502 12.0068
ltoes 0.646435
1888
root 9.9441 15.8995 21.2247 -341.95 294.507 -5.07118
lowerback -4.83876 -1.0527 -1.23355
upperback -5.256 -1.44853 1.64026
thorax -2.63 -0.700231 2.34638
lowerneck -13.4722 -7.61857 -2.9208
upperneck 35.5953 -16.2224 10.2287
head 16.2157 -6.36959 1.82424
rclavicle -2.52272e-014 -1.31446e-014
rhumerus -34.0386 -0.843887 -76.8043
rradius 29.9491
rwrist 4.88317
rhand -12.6734 -2.14199
rfingers 7.12502
rthumb 13.408 -31.6905
lclavicle -2.52272e-014 -1.31446e-014
lhumerus -42.5766 8.27045 58.2209
lradius 33.6439
lwrist -19.5684
lhand -9.27645 14.3985
lfingers 7.12502
lthumb 16.6803 43.7019
rfemur -27.5331 12.3634 16.153
rtibia 36.0165
rfoot -17.5802 -4.836
rtoes -4.91627
lfemur -16.5793 -8.02855 -16.9783
ltibia 20.7958
lfoot -16.3924 12.6418
ltoes 0.868894
1889
root 9.96778 15.8989 21.2515 -341.5 293.377 -5.45508
lowerback -4.79505 -1.10769 -1.4219
upperback -5.24963 -1.51804 1.70254
thorax -2.63881 -0.728513 2.5155
lowerneck -13.3601 -7.77177 -3.1301
upperneck 35.5112 -16.4405 10.2935
head 16.1989 -6.49848 1.84427
rclavicle -5.14441e-014 -2.58172e-014
rhumerus -34.1231 -0.710138 -76.6975
rradius 30.024
rwrist 4.78386
rhand -12.7803 -2.2843
rfingers 7.12502
rthumb 13.3049 -31.8396
lclavicle -5.14441e-014 -2.58172e-014
lhumerus -42.3392 8.0515 57.8583
lradius 33.6635
lwrist -19.4138
lhand -9.41559 14.4695
lfingers 7.12502
lthumb 16.5464 43.784
rfemur -27.6589 11.7271 16.5906
rtibia 36.1111
rfoot -17.6278 -6.26133
rtoes -4.25446
lfemur -16.553 -7.61574 -17.1924
ltibia 20.9101
lfoot -16.6571 13.2874
ltoes 1.12527
1890
root 9.99072 15.8978 21.2771 -341.035 292.234 -5.85648
lowerback -4.75135 -1.16706 -1.62319
upperback -5.24441 -1.59334 1.76048
thorax -2.64778 -0.759348 2.68742
lowerneck -13.2381 -7.90399 -3.32523
upperneck 35.415 -16.6291 10.3623
head 16.1702 -6.61387 1.86976
rclavicle 1.06831e-014 2.62272e-014
rhumerus -34.1986 -0.538168 -76.6351
rradius 30.0966
rwrist 4.58003
rhand -13.0308 -2.55253
rfingers 7.12502
rthumb 13.0635 -32.1234
lclavicle 1.06831e-014 2.62272e-014
lhumerus -42.1289 7.82576 57.5018
lradius 33.6977
lwrist -19.2313
lhand -9.55281 14.5414
lfingers 7.12502
lthumb 16.4142 43.8669
rfemur -27.78 11.0446 17.0243
rtibia 36.1838
rfoot -17.7395 -7.54433
rtoes -3.26053
lfemur -16.5375 -7.19906 -17.4129
ltibia 21.0449
lfoot -16.9392 13.9366
ltoes 1.38406
1891
root 10.0126 15.896 21.3015 -340.5 291.062 -6.33777
lowerback -4.71022 -1.22054 -1.81518
upperback -5.23718 -1.66121 1.81502
thorax -2.65344 -0.786881 2.85082
lowerneck -13.1037 -8.01692 -3.50807
upperneck 35.3039 -16.7914 10.4393
head 16.1286 -6.71706 1.90239
rclavicle 7.71094e-015 -2.05183e-014
rhumerus -34.2648 -0.371661 -76.5987
rradius 30.1549
rwrist 4.31098
rhand -13.3641 -2.88716
rfingers 7.12502
rthumb 12.7422 -32.4784
lclavicle 7.71094e-015 -2.05183e-014
lhumerus -41.9433 7.59043 57.1487
lradius 33.747
lwrist -19.029
lhand -9.68485 14.6105
lfingers 7.12502
lthumb 16.2871 43.9465
rfemur -27.8942 10.3727 17.4668
rtibia 36.2382
rfoot -17.883 -8.73485
rtoes -2.32592
lfemur -16.5165 -6.76329 -17.6241
ltibia 21.1924
lfoot -17.2425 14.604
ltoes 1.6237
1892
root 10.0337 15.8936 21.3252 -339.921 289.888 -6.87378
lowerback -4.67195 -1.2708 -1.98893
upperback -5.22359 -1.72533 1.85702
thorax -2.65141 -0.813431 2.991
lowerneck -12.9905 -8.11274 -3.66148
upperneck 35.2043 -16.9351 10.508
head 16.0925 -6.80806 1.92943
rclavicle -3.86718e-015 -1.56419e-014
rhumerus -34.3236 -0.247358 -76.5729
rradius 30.1981
rwrist 4.01587
rhand -13.7315 -3.24099
rfingers 7.12502
rthumb 12.388 -32.8539
lclavicle -3.86718e-015 -1.56419e-014
lhumerus -41.7624 7.33706 56.8053
lradius 33.8109
lwrist -18.8136
lhand -9.80427 14.6835
lfingers 7.12502
lthumb 16.1721 44.0289
rfemur -27.9913 9.68041 17.9109
rtibia 36.2764
rfoot -18.0633 -9.81623
rtoes -1.5063
lfemur -16.4925 -6.31257 -17.8352
ltibia 21.3507
lfoot -17.5591 15.2625
ltoes 1.84485
1893
root 10.054 15.8907 21.3475 -339.323 288.71 -7.4386
lowerback -4.62896 -1.31019 -2.15693
upperback -5.20436 -1.77524 1.87902
thorax -2.64742 -0.833368 3.1077
lowerneck -12.8933 -8.20011 -3.7938
upperneck 35.1067 -17.0726 10.5789
head 16.0593 -6.89244 1.95438
rclavicle 1.67461e-014 -1.33434e-014
rhumerus -34.3819 -0.242641 -76.5304
rradius 30.2147
rwrist 3.78821
rhand -14.078 -3.55988
rfingers 7.12502
rthumb 12.0538 -33.1927
lclavicle 1.67461e-014 -1.33434e-014
lhumerus -41.5713 7.05694 56.4757
lradius 33.8848
lwrist -18.6115
lhand -9.90276 14.7556
lfingers 7.12502
lthumb 16.0773 44.1087
rfemur -28.0727 8.99221 18.3359
rtibia 36.3
rfoot -18.274 -10.7811
rtoes -0.818108
lfemur -16.4653 -5.84254 -18.0585
ltibia 21.5213
lfoot -17.8831 15.9068
ltoes 2.03899
1894
root 10.0738 15.8872 21.369 -338.657 287.523 -8.07519
lowerback -4.58557 -1.33511 -2.3011
upperback -5.18338 -1.8067 1.88165
thorax -2.64404 -0.845129 3.19146
lowerneck -12.8078 -8.27968 -3.90629
upperneck 35.0081 -17.2056 10.6557
head 16.0272 -6.97092 1.97891
rclavicle -2.69524e-015 1.799e-014
rhumerus -34.4347 -0.329995 -76.4615
rradius 30.1991
rwrist 3.63766
rhand -14.3512 -3.80422
rfingers 7.12502
rthumb 11.7905 -33.4523
lclavicle -2.69524e-015 1.799e-014
lhumerus -41.3688 6.7552 56.154
lradius 33.9669
lwrist -18.4336
lhand -9.97308 14.8222
lfingers 7.12502
lthumb 16.0096 44.1807
rfemur -28.1483 8.30489 18.7466
rtibia 36.3068
rfoot -18.4901 -11.6051
rtoes -0.3224
lfemur -16.4453 -5.35307 -18.2836
ltibia 21.7073
lfoot -18.2095 16.5294
ltoes 2.23577
